<svg xmlns="http://www.w3.org/2000/svg" x="0px" y="0px" width="100" height="100" viewBox="0,0,256,256">
<g fill="none" fill-rule="nonzero" stroke="none" stroke-width="1" stroke-linecap="butt" stroke-linejoin="miter" stroke-miterlimit="10" stroke-dasharray="" stroke-dashoffset="0" font-family="none" font-weight="none" font-size="none" text-anchor="none" style="mix-blend-mode: normal"><g transform="scale(3.2,3.2)"><path d="M17,76.5c-7.444,0 -13.5,-6.056 -13.5,-13.5c0,-7.444 6.056,-13.5 13.5,-13.5c2.002,0 3.949,0.443 5.785,1.317l0.715,0.34v-39.728l51,-7.846v55.417c0,7.444 -6.056,13.5 -13.5,13.5c-7.444,0 -13.5,-6.056 -13.5,-13.5c0,-7.444 6.056,-13.5 13.5,-13.5c2.002,0 3.949,0.443 5.785,1.317l0.715,0.34v-23.527l-37,5.707v33.663c0,7.444 -6.056,13.5 -13.5,13.5z" fill="#0156c6"></path><path d="M74,4.166v54.834c0,7.168 -5.832,13 -13,13c-7.168,0 -13,-5.832 -13,-13c0,-7.168 5.832,-13 13,-13c1.927,0 3.801,0.427 5.57,1.268l1.43,0.68v-1.583v-22.152v-1.166l-1.152,0.178l-36,5.553l-0.848,0.131v0.858v33.233c0,7.168 -5.832,13 -13,13c-7.168,0 -13,-5.832 -13,-13c0,-7.168 5.832,-13 13,-13c1.927,0 3.801,0.427 5.57,1.268l1.43,0.68v-1.583v-38.507l50,-7.692M75,3l-52,8v39.365c-1.821,-0.866 -3.85,-1.365 -6,-1.365c-7.732,0 -14,6.268 -14,14c0,7.732 6.268,14 14,14c7.732,0 14,-6.268 14,-14v-33.234l36,-5.553v22.152c-1.821,-0.866 -3.85,-1.365 -6,-1.365c-7.732,0 -14,6.268 -14,14c0,7.732 6.268,14 14,14c7.732,0 14,-6.268 14,-14v-56z" fill="#4e7ab5"></path></g></g>
</svg>